# xmcd CD database file
#
# Track frame offsets:
#	150
#	8294
#	17705
#	28711
#	37562
#	49495
#	97784
#	126748
#	142407
#	151478
#	161264
#	173465
#
# Disc length: 2450 seconds
#
# Revision: 1
# Processed by: cddbd v1.5.1PL0 Copyright (c) Steve Scherf et al.
# Submitted via: CDex 1.51
#
DISCID=8a09900c
DTITLE=James Brown - Live at the Apollo (1962) Expanded Edition
DYEAR=1900
DGENRE=
TTITLE0=Introduction to James Brown
TTITLE1=I'll Go Crazy
TTITLE2=Try Me
TTITLE3=Think
TTITLE4=I Don't Mind
TTITLE5=Lost Someone
TTITLE6=Medley One
TTITLE7=Night Train
TTITLE8=Think
TTITLE9=Medley Two
TTITLE10=Lost Someone
TTITLE11=I'll Go Crazy
EXTD=
EXTT0=
EXTT1=
EXTT2=
EXTT3=
EXTT4=
EXTT5=
EXTT6=
EXTT7=
EXTT8=
EXTT9=
EXTT10=
EXTT11=
PLAYORDER=
